# xmcd
#
# Track frame offsets: 
#        150
#        16165
#        28672
#        45117
#        61132
#        75670
#        87075
#        102292
#        118170
#        133120
#        150567
#        161340
#        174977
#
# Disc length: 2601 seconds
#
# Revision: 2
# Processed by: cddbd v1.4PL0 Copyright (c) Steve Scherf et al.
# Submitted via: ExactAudioCopy v0.90b3
#
DISCID=8d0a270d
DTITLE=Various Artist - Zydeco Blues and Boogie
DYEAR=1900
DGENRE=Zydeco
TTITLE0=Roy Carriere - I'm Coming Home to Stay
TTITLE1=Bad Weather - Don't Put Your Hand on That
TTITLE2=Dalton Reed - Strange Things
TTITLE3=Nolton Semien - Right On Girl
TTITLE4=Donald Jacob - Love Repair Man
TTITLE5=Bill Matte - Restless Night
TTITLE6=Roy Carriere - What You Gonna Do (With a Man Like That)
TTITLE7=Dalton Reed - Giving on Into Love
TTITLE8=Leo Thomas - I'm Gonna Move
TTITLE9=Donald Jacob - She Kept Chewing Gum
TTITLE10=Willis Prudhomme - Jacqueline
TTITLE11=Bad Weather - That Zydeco Stuff
TTITLE12=Roy Carriere - I Found My Woman
EXTD=
EXTT0=
EXTT1=
EXTT2=
EXTT3=
EXTT4=
EXTT5=
EXTT6=
EXTT7=
EXTT8=
EXTT9=
EXTT10=
EXTT11=
EXTT12=
PLAYORDER=
